<?xml version="1.0" standalone="no"?>
<!DOCTYPE svg PUBLIC "-//W3C//DTD SVG 20010904//EN"
 "http://www.w3.org/TR/2001/REC-SVG-20010904/DTD/svg10.dtd">
<svg version="1.0" xmlns="http://www.w3.org/2000/svg"
 width="512.000000pt" height="512.000000pt" viewBox="0 0 512.000000 512.000000"
 preserveAspectRatio="xMidYMid meet">
<metadata>
Created by potrace 1.14, written by Peter Selinger 2001-2017
</metadata>
<g transform="translate(0.000000,512.000000) scale(0.100000,-0.100000)"
fill="#000000" stroke="none">
<path d="M2445 4484 c-87 -68 -173 -136 -190 -150 -16 -14 -81 -64 -144 -112
-101 -78 -251 -194 -291 -225 -121 -96 -413 -292 -638 -431 -170 -104 -551
-286 -652 -312 -8 -2 -46 -13 -85 -24 -38 -11 -79 -22 -90 -24 -132 -26 -201
-36 -261 -39 -74 -4 -94 -10 -94 -31 0 -6 109 -58 242 -114 134 -56 261 -109
283 -119 22 -9 42 -17 45 -18 3 -1 23 -10 45 -19 22 -9 68 -29 102 -43 l62
-26 -235 -231 -235 -231 0 -384 c0 -211 3 -387 8 -391 4 -5 485 -207 1068
-450 583 -243 1074 -448 1090 -455 43 -19 296 -126 323 -136 21 -8 35 2 121
88 150 150 1579 1565 1909 1891 l292 289 -2 387 -3 388 -60 25 c-33 13 -73 30
-90 38 -16 7 -140 59 -275 115 -135 56 -315 131 -400 167 -85 36 -209 88 -275
115 -66 28 -133 56 -150 63 -16 8 -194 82 -395 165 -201 84 -378 158 -395 165
-35 16 -445 186 -460 191 -5 2 -82 -53 -170 -122z m-22 -483 c1215 -508 1873
-783 1880 -788 4 -3 -7 -16 -25 -29 -18 -13 -44 -33 -58 -43 -246 -185 -418
-302 -635 -433 -125 -75 -347 -191 -425 -222 -25 -10 -58 -24 -75 -31 -100
-44 -292 -97 -402 -111 -32 -4 -98 -7 -147 -6 -88 1 -91 2 -295 87 -113 48
-219 92 -236 100 -16 7 -113 48 -215 90 -102 42 -204 85 -227 96 -24 10 -45
19 -48 19 -3 0 -24 8 -48 19 -23 10 -78 33 -122 51 -44 19 -84 37 -90 42 -5 4
-14 8 -21 8 -6 0 -33 10 -60 22 -27 12 -53 23 -59 24 -11 3 -219 89 -250 104
-11 5 -57 24 -102 42 l-81 34 71 29 c83 33 273 120 302 137 11 6 56 32 100 56
105 57 219 125 225 133 3 3 15 9 28 13 12 4 22 12 22 17 0 5 4 9 10 9 5 0 39
20 76 45 36 25 69 45 74 45 4 0 10 3 12 8 2 4 26 22 53 39 44 28 204 144 260
188 11 9 29 22 40 30 164 120 288 215 293 228 7 15 36 6 175 -52z m1970 -1330
c-687 -680 -1483 -1468 -1565 -1549 -64 -63 -69 -66 -95 -55 -16 6 -282 118
-593 248 -311 130 -797 334 -1080 452 -283 118 -519 218 -523 222 -8 8 -12
180 -4 188 3 2 24 -5 48 -16 24 -11 224 -95 444 -187 220 -91 419 -175 442
-185 24 -10 45 -19 48 -19 3 0 24 -9 48 -19 85 -39 1202 -503 1214 -505 11 -1
393 374 1638 1607 l480 476 3 -77 3 -77 -508 -504z m205 -89 c-167 -165 -446
-442 -620 -614 -175 -173 -518 -513 -762 -756 -405 -403 -447 -441 -468 -433
-13 5 -165 69 -338 141 -173 73 -396 166 -495 207 -99 41 -193 81 -210 88 -16
8 -113 48 -215 90 -102 43 -203 85 -225 95 -22 9 -196 82 -387 161 l-346 144
-4 72 c-5 126 -46 132 422 -64 351 -147 1155 -483 1688 -706 l144 -60 116 116
c65 64 203 200 309 304 247 242 1558 1540 1632 1615 l56 58 3 -79 3 -79 -303
-300z m-648 -14 c-518 -513 -1131 -1117 -1167 -1151 l-30 -28 -274 114 c-151
63 -416 175 -589 247 -173 73 -340 143 -370 155 -30 12 -109 45 -175 73 -66
27 -176 73 -245 102 -69 28 -140 58 -157 66 -73 32 -104 45 -228 95 l-130 53
209 207 208 206 272 -114 c149 -63 363 -152 476 -199 113 -47 214 -89 225 -94
117 -55 393 -164 440 -173 186 -40 509 21 821 153 283 121 690 365 994 596 52
40 97 73 100 73 3 0 -168 -171 -380 -381z"/>
<path d="M2591 3478 c-25 -9 -193 -130 -188 -135 3 -2 62 -4 133 -4 111 0 125
-1 108 -13 -88 -63 -412 -297 -421 -306 -7 -6 -76 -41 -153 -77 -77 -37 -140
-70 -140 -74 0 -9 155 -89 172 -89 36 0 298 132 344 173 7 7 45 35 85 62 187
131 513 371 516 380 2 6 -33 29 -77 50 l-81 39 -140 1 c-77 0 -148 -3 -158 -7z"/>
</g>
</svg>
